<svg width="15" height="18" viewBox="0 0 15 18" fill="none" xmlns="http://www.w3.org/2000/svg">
<path d="M11.5441 15.367L1.94409 9.10098L11.5441 2.83496L12.4001 4.14597L4.80807 9.10098L12.4001 14.056L11.5441 15.367Z" fill="#707070"/>
<path d="M11.9742 5.57202C13.1262 5.57202 14.0602 4.63809 14.0602 3.48602C14.0602 2.33396 13.1262 1.40002 11.9742 1.40002C10.8221 1.40002 9.88818 2.33396 9.88818 3.48602C9.88818 4.63809 10.8221 5.57202 11.9742 5.57202Z" fill="#707070"/>
<path d="M11.9751 6.355C11.4077 6.355 10.853 6.18674 10.3812 5.87149C9.90937 5.55624 9.54162 5.10816 9.32447 4.58392C9.10733 4.05968 9.0505 3.48282 9.16121 2.92629C9.27191 2.36975 9.54519 1.85854 9.94642 1.45731C10.3477 1.05607 10.8588 0.782836 11.4154 0.672135C11.9719 0.561434 12.5488 0.618241 13.073 0.835389C13.5973 1.05254 14.0453 1.42027 14.3605 1.89208C14.6758 2.36388 14.8441 2.91857 14.8441 3.48601C14.8433 4.24667 14.5408 4.97594 14.0029 5.51381C13.465 6.05168 12.7358 6.3542 11.9751 6.355ZM11.9751 2.183C11.718 2.183 11.4666 2.25924 11.2528 2.40208C11.039 2.54493 10.8725 2.74798 10.7741 2.98552C10.6757 3.22306 10.6499 3.48444 10.7001 3.73662C10.7502 3.98879 10.8741 4.22043 11.0559 4.40224C11.2377 4.58405 11.4693 4.70787 11.7214 4.75803C11.9736 4.80819 12.235 4.78245 12.4725 4.68405C12.7101 4.58566 12.9131 4.41903 13.056 4.20525C13.1988 3.99146 13.2751 3.74012 13.2751 3.483C13.274 3.13845 13.1367 2.8083 12.8932 2.56458C12.6497 2.32085 12.3197 2.18432 11.9751 2.183Z" fill="#707070"/>
<path d="M11.9742 16.793C13.1262 16.793 14.0602 15.859 14.0602 14.707C14.0602 13.5549 13.1262 12.621 11.9742 12.621C10.8221 12.621 9.88818 13.5549 9.88818 14.707C9.88818 15.859 10.8221 16.793 11.9742 16.793Z" fill="#707070"/>
<path d="M11.9751 17.576C11.4077 17.576 10.853 17.4077 10.3812 17.0925C9.90937 16.7772 9.54162 16.3292 9.32447 15.8049C9.10733 15.2807 9.0505 14.7038 9.16121 14.1473C9.27191 13.5908 9.54519 13.0795 9.94642 12.6783C10.3477 12.2771 10.8588 12.0038 11.4154 11.8931C11.9719 11.7824 12.5488 11.8393 13.073 12.0564C13.5973 12.2736 14.0453 12.6412 14.3605 13.113C14.6758 13.5849 14.8441 14.1395 14.8441 14.707C14.8433 15.4676 14.5408 16.1969 14.0029 16.7348C13.465 17.2727 12.7358 17.5752 11.9751 17.576ZM11.9751 13.404C11.718 13.404 11.4666 13.4803 11.2528 13.6231C11.039 13.766 10.8725 13.9689 10.7741 14.2065C10.6757 14.444 10.6499 14.7054 10.7001 14.9576C10.7502 15.2098 10.8741 15.4414 11.0559 15.6232C11.2377 15.8051 11.4693 15.9289 11.7214 15.979C11.9736 16.0292 12.235 16.0034 12.4725 15.905C12.7101 15.8066 12.9131 15.64 13.056 15.4262C13.1988 15.2124 13.2751 14.9611 13.2751 14.704C13.274 14.3594 13.1367 14.0293 12.8932 13.7856C12.6497 13.5419 12.3197 13.4053 11.9751 13.404Z" fill="#707070"/>
<path d="M5.43895 9.4227C5.61901 8.28479 4.84253 7.21637 3.70462 7.0363C2.56671 6.85624 1.49829 7.63272 1.31822 8.77063C1.13816 9.90854 1.91464 10.977 3.05255 11.157C4.19046 11.3371 5.25888 10.5606 5.43895 9.4227Z" fill="#707070"/>
<path d="M3.37913 11.966C2.8117 11.966 2.257 11.7978 1.7852 11.4825C1.31339 11.1673 0.945675 10.7192 0.728528 10.195C0.51138 9.67072 0.454557 9.09387 0.565258 8.53733C0.675959 7.9808 0.949208 7.46958 1.35045 7.06834C1.75168 6.6671 2.26288 6.39385 2.81941 6.28315C3.37594 6.17245 3.95279 6.22928 4.47703 6.44642C5.00127 6.66357 5.44935 7.03129 5.7646 7.50309C6.07985 7.9749 6.24812 8.52959 6.24812 9.09703C6.24733 9.85769 5.9448 10.587 5.40693 11.1249C4.86906 11.6627 4.13979 11.9653 3.37913 11.966ZM3.37913 7.79405C3.12202 7.79405 2.87066 7.87029 2.65687 8.01313C2.44309 8.15598 2.27648 8.35899 2.17808 8.59654C2.07969 8.83408 2.05395 9.09549 2.10411 9.34767C2.15427 9.59984 2.27807 9.83148 2.45988 10.0133C2.64169 10.1951 2.87332 10.3189 3.1255 10.3691C3.37768 10.4192 3.63909 10.3935 3.87663 10.2951C4.11417 10.1967 4.31719 10.03 4.46003 9.81627C4.60288 9.60248 4.67912 9.35115 4.67912 9.09404C4.67807 8.74949 4.54079 8.41934 4.29725 8.17561C4.05371 7.93188 3.72368 7.79436 3.37913 7.79304V7.79405Z" fill="#707070"/>
</svg>
